<?xml version="1.0" encoding="UTF-8" standalone="no"?>
<!-- Created with Inkscape (http://www.inkscape.org/) -->

<svg
   xmlns:dc="http://purl.org/dc/elements/1.1/"
   xmlns:cc="http://creativecommons.org/ns#"
   xmlns:rdf="http://www.w3.org/1999/02/22-rdf-syntax-ns#"
   xmlns:svg="http://www.w3.org/2000/svg"
   xmlns="http://www.w3.org/2000/svg"
   xmlns:sodipodi="http://sodipodi.sourceforge.net/DTD/sodipodi-0.dtd"
   xmlns:inkscape="http://www.inkscape.org/namespaces/inkscape"
   width="1200"
   height="400"
   viewBox="0 0 317.49999 105.83334"
   version="1.1"
   id="svg908"
   inkscape:version="0.92.2 (5c3e80d, 2017-08-06)"
   sodipodi:docname="CPG_banner1.svg">
  <defs
     id="defs902">
    <inkscape:path-effect
       fuse_tolerance="0"
       vertical_pattern="false"
       prop_units="false"
       tang_offset="0"
       normal_offset="0"
       spacing="0"
       scale_y_rel="false"
       prop_scale="0.26458334"
       copytype="single_stretched"
       pattern="M 0,5 C 0,2.24 2.24,0 5,0 7.76,0 10,2.24 10,5 10,7.76 7.76,10 5,10 2.24,10 0,7.76 0,5 Z"
       is_visible="true"
       id="path-effect1542"
       effect="skeletal" />
    <inkscape:path-effect
       fuse_tolerance="0"
       vertical_pattern="false"
       prop_units="false"
       tang_offset="0"
       normal_offset="0"
       spacing="0"
       scale_y_rel="false"
       prop_scale="0.26458334"
       copytype="single_stretched"
       pattern="M 0,5 C 0,2.24 2.24,0 5,0 7.76,0 10,2.24 10,5 10,7.76 7.76,10 5,10 2.24,10 0,7.76 0,5 Z"
       is_visible="true"
       id="path-effect1538"
       effect="skeletal" />
    <inkscape:path-effect
       is_visible="true"
       id="path-effect1536"
       effect="spiro" />
    <inkscape:path-effect
       fuse_tolerance="0"
       vertical_pattern="false"
       prop_units="false"
       tang_offset="0"
       normal_offset="0"
       spacing="0"
       scale_y_rel="false"
       prop_scale="0.26458334"
       copytype="single_stretched"
       pattern="M 0,5 C 0,2.24 2.24,0 5,0 7.76,0 10,2.24 10,5 10,7.76 7.76,10 5,10 2.24,10 0,7.76 0,5 Z"
       is_visible="true"
       id="path-effect1066"
       effect="skeletal" />
    <inkscape:path-effect
       is_visible="true"
       id="path-effect1064"
       effect="spiro" />
    <inkscape:path-effect
       is_visible="true"
       id="path-effect1060"
       effect="spiro" />
    <inkscape:path-effect
       end_linecap_type="zerowidth"
       miter_limit="4"
       linejoin_type="extrp_arc"
       start_linecap_type="zerowidth"
       interpolator_beta="0.2"
       interpolator_type="CubicBezierJohan"
       sort_points="true"
       offset_points="37,0.13229166"
       is_visible="true"
       id="path-effect1056"
       effect="powerstroke" />
    <inkscape:path-effect
       is_visible="true"
       id="path-effect1054"
       effect="spiro" />
    <inkscape:path-effect
       end_linecap_type="zerowidth"
       miter_limit="4"
       linejoin_type="extrp_arc"
       start_linecap_type="zerowidth"
       interpolator_beta="0.2"
       interpolator_type="CubicBezierJohan"
       sort_points="true"
       offset_points="1,0.13229166"
       is_visible="true"
       id="path-effect1050"
       effect="powerstroke" />
    <inkscape:path-effect
       is_visible="true"
       id="path-effect1048"
       effect="spiro" />
    <inkscape:path-effect
       end_linecap_type="zerowidth"
       miter_limit="4"
       linejoin_type="extrp_arc"
       start_linecap_type="zerowidth"
       interpolator_beta="0.2"
       interpolator_type="CubicBezierJohan"
       sort_points="true"
       offset_points="5,0.13229166"
       is_visible="true"
       id="path-effect1044"
       effect="powerstroke" />
    <inkscape:path-effect
       is_visible="true"
       id="path-effect1042"
       effect="spiro" />
    <inkscape:path-effect
       is_visible="true"
       id="path-effect1038"
       effect="spiro" />
  </defs>
  <sodipodi:namedview
     id="base"
     pagecolor="#ffffff"
     bordercolor="#666666"
     borderopacity="1.0"
     inkscape:pageopacity="0.0"
     inkscape:pageshadow="2"
     inkscape:zoom="0.35"
     inkscape:cx="400"
     inkscape:cy="560"
     inkscape:document-units="mm"
     inkscape:current-layer="svg908"
     showgrid="false"
     units="px"
     inkscape:pagecheckerboard="false"
     inkscape:window-width="1366"
     inkscape:window-height="704"
     inkscape:window-x="0"
     inkscape:window-y="27"
     inkscape:window-maximized="1" />
  <metadata
     id="metadata905">
    <rdf:RDF>
      <cc:Work
         rdf:about="">
        <dc:format>image/svg+xml</dc:format>
        <dc:type
           rdf:resource="http://purl.org/dc/dcmitype/StillImage" />
        <dc:title></dc:title>
      </cc:Work>
    </rdf:RDF>
  </metadata>
  <g
     inkscape:label="Layer 1"
     inkscape:groupmode="layer"
     id="layer1"
     transform="translate(0,-191.16665)"
     style="display:inline"
     sodipodi:insensitive="true">
    <g
       inkscape:groupmode="layer"
       id="layer5"
       inkscape:label="Layer 2"
       transform="translate(0,191.16665)">
      <rect
         style="opacity:1;fill:#607d8b;fill-opacity:1;fill-rule:evenodd;stroke:#607d8b;stroke-width:0.79374999;stroke-linecap:round;stroke-miterlimit:4;stroke-dasharray:none;stroke-opacity:1"
         id="rect1166"
         width="318.25595"
         height="55.184521"
         x="0"
         y="52.160713"
         ry="1.9512676" />
    </g>
    <g
       id="g1163"
       transform="matrix(0.52489949,0,0,0.52501876,17.642039,182.09553)"
       style="stroke-width:1.90491021">
      <g
         style="display:inline;stroke-width:1.90491021"
         inkscape:label="Layer 2"
         id="layer2">
        <path
           sodipodi:nodetypes="csscccccsc"
           inkscape:connector-curvature="0"
           id="path5318"
           d="m 63.775145,37.491757 c -0.253517,1.76691 -4.355872,7.39455 -7.366938,7.36135 -2.112771,-0.0233 -1.512383,0.86561 -1.728669,1.3998 -0.282675,0.69815 -0.206776,3.17243 1.711641,3.18146 -0.735655,2.49454 -0.299764,3.18119 1.382208,6.71185 2.099096,0.6292 4.368071,0.56147 5.623788,0.24435 4.038603,-2.08776 6.688754,-5.77808 8.092095,-9.80838 -1.682835,-2.17715 -5.267399,-4.79218 -0.91055,-4.68835 -5.832687,-1.01299 -5.914809,-4.40208 -6.80357,-4.40208 z"
           style="fill:#ffc9a9;fill-opacity:1;fill-rule:evenodd;stroke:#ffc9a9;stroke-width:0.50400746px;stroke-linecap:butt;stroke-linejoin:miter;stroke-opacity:1" />
        <path
           sodipodi:nodetypes="cccccccccccc"
           inkscape:connector-curvature="0"
           id="path5324"
           d="m 86.179369,110.28117 1.603618,0.33409 3.073598,-0.60136 c 2.873419,1.21267 2.742173,1.75764 2.472246,2.27179 -1.410684,-0.19309 -2.778253,-0.35874 -2.271792,0.66817 0.935443,1.48792 1.870887,2.56866 2.80633,1.93771 l 1.202713,-0.20046 1.269529,1.26954 c 0.258157,0.73955 -1.35831,2.4164 -3.207234,4.20949 -2.071339,0.34358 -4.142678,-0.37077 -6.214017,-1.06907 -2.651714,-1.67044 -4.148116,-2.93997 -4.877668,-4.61041 1.43073,-1.88896 2.535308,-3.20372 4.142677,-4.20949 z"
           style="fill:#ffc9a9;fill-opacity:1;fill-rule:evenodd;stroke:#ffc9a9;stroke-width:0.50400746px;stroke-linecap:butt;stroke-linejoin:miter;stroke-opacity:1" />
        <path
           sodipodi:nodetypes="cccccccccccccc"
           inkscape:connector-curvature="0"
           id="path5332"
           d="m 95.06608,114.69111 2.539063,0.26727 1.804069,2.6727 c 1.113628,0.62686 3.964498,2.68795 5.078118,3.14042 2.8638,0.74452 4.46874,2.18367 6.41447,2.60587 1.77617,1.50868 3.61976,0.80816 4.87767,1.26954 1.29953,0.12918 1.66753,-3.60233 2.27179,-6.08039 1.67471,-4.06784 1.51325,-1.07967 2.20497,-1.87088 l 0.20045,7.14946 c -0.8906,1.30198 -1.8657,2.5886 -4.67721,3.54132 -2.24527,0.0156 -3.01117,-0.33856 -3.87541,-0.66818 -3.51673,-1.03287 -7.19811,-2.38552 -10.89123,-4.47676 l -5.011305,-2.00452 -2.87315,-0.0668"
           style="fill:#ffc9a9;fill-opacity:1;fill-rule:evenodd;stroke:#ffc9a9;stroke-width:0.50400746px;stroke-linecap:butt;stroke-linejoin:miter;stroke-opacity:1" />
        <path
           sodipodi:nodetypes="ccccccccccccccc"
           inkscape:connector-curvature="0"
           id="path5336"
           d="m 124.79981,113.42158 0.20046,-2.27179 -1.60362,0.0668 c -0.68011,0.0716 -1.36429,0.16763 -1.87089,-0.80181 -0.49104,-0.92872 -0.18793,-1.328 -0.20045,-1.9377 -0.37296,0.0834 0.40925,-0.98833 0.66818,-1.5368 l 0.33408,-3.40769 c 1.10975,-1.71479 2.82363,-4.154523 2.27179,-3.875413 0.76937,-0.49508 1.25036,-1.13434 2.33861,-1.46998 2.53961,-1.36083 4.6013,-0.80993 6.61492,-0.0668 -0.38492,1.23575 0.67865,0.41947 -1.60362,4.343133 0.81608,1.85968 0.47869,2.1045 0.46773,2.80633 -1.98158,3.51638 -3.17501,3.88012 -4.67722,5.47903 l -0.60136,2.73951 z"
           style="fill:#ffc9a9;fill-opacity:1;fill-rule:evenodd;stroke:#ffc9a9;stroke-width:0.50400746px;stroke-linecap:butt;stroke-linejoin:miter;stroke-opacity:1" />
        <path
           sodipodi:nodetypes="ccccccccccccc"
           inkscape:connector-curvature="0"
           id="path5338"
           d="m 130.15721,115.3076 -0.33073,3.49628 c 0.85267,0.87633 1.2411,3.02062 1.33913,4.02272 -3.77435,6.94269 -6.83578,9.62145 -11.07202,14.07289 -1.13851,-2.096 -2.67826,-0.17962 -4.15773,1.13393 0.79903,1.40257 1.71029,-0.1006 2.83481,0 l -1.98437,2.4096 c -0.93538,2.90347 0.82397,2.09205 2.59859,1.84263 1.28969,-0.54046 2.19056,-1.19201 2.59859,-1.98437 l -0.18899,-0.94494 c 4.31072,-4.28373 7.66944,-9.03993 10.3471,-13.32366 1.13555,-1.4757 1.57624,-3.38123 1.60639,-4.48846 -0.46723,-2.38072 -2.22767,-4.30383 -3.59077,-6.23662 z"
           style="fill:#ffc9a9;fill-opacity:1;fill-rule:evenodd;stroke:#ffc9a9;stroke-width:0.50400746px;stroke-linecap:butt;stroke-linejoin:miter;stroke-opacity:1" />
        <path
           sodipodi:nodetypes="cccccccc"
           inkscape:connector-curvature="0"
           id="path5340"
           d="m 153.28115,56.081367 c -0.9184,3.07263 -4.04034,4.45602 -7.44325,5.0434 -0.0215,2.51292 -1.37064,4.362 -0.0419,7.55002 0.23042,2.64583 2.60242,4.75713 4.91369,7.40296 2.54567,-0.39256 4.08837,-1.6765 5.56843,-2.77946 l 2.5027,-4.27795 -0.13363,-6.77114 c -4.85387,-2.06326 -3.47372,-3.84894 -5.36602,-6.16783 z"
           style="fill:none;fill-rule:evenodd;stroke:#000000;stroke-width:0.50400746px;stroke-linecap:butt;stroke-linejoin:miter;stroke-opacity:1" />
        <path
           sodipodi:nodetypes="ccccccc"
           inkscape:connector-curvature="0"
           id="path5342"
           d="m 149.65588,83.353757 c 2.96358,4.21735 5.29371,1.25554 7.75081,-0.26726 l -2.00452,-6.61493 -0.19313,-2.23784 c -2.31945,1.48983 -3.0713,1.59941 -4.49935,1.84402 l 0.68344,2.9997 z"
           style="fill:#ffc9a9;fill-opacity:1;fill-rule:evenodd;stroke:#ffc9a9;stroke-width:0.50400746px;stroke-linecap:butt;stroke-linejoin:miter;stroke-opacity:1" />
        <path
           sodipodi:nodetypes="cccccccccccccccccc"
           inkscape:connector-curvature="0"
           id="path5344"
           d="m 161.81664,87.897337 -0.8018,-2.93996 c -2.18171,-2.24291 0.34961,-1.91506 1.87088,-2.13816 l 2.6727,1.73725 c 2.07175,5.2052 3.64449,4.19466 0.26727,16.570723 0.43453,0.0386 -2.8236,5.61628 -7.34992,13.0962 -1.59091,3.84042 -12.70893,16.48359 -18.44159,22.04974 l -4.00905,4.67722 -2.53906,0.53453 c -0.79371,-1.33635 -0.0269,-2.67269 0.93545,-4.00904 l 3.0736,-3.4745 h -2.40543 c -0.74452,-1.29635 0.83777,-2.26029 2.53906,-3.20724 0.0641,-0.004 -1.33927,0.0744 2.40543,-0.13363 3.2812,-3.40054 6.67419,-6.68928 9.6217,-10.42351 l 6.81537,-12.69531 4.67722,-12.428033 c 0.4561,-1.93867 0.55934,-4.58307 0.66817,-7.21628 z"
           style="fill:#ffc9a9;fill-opacity:1;fill-rule:evenodd;stroke:#ffc9a9;stroke-width:0.50400746px;stroke-linecap:butt;stroke-linejoin:miter;stroke-opacity:1" />
        <path
           sodipodi:nodetypes="ccccccc"
           inkscape:connector-curvature="0"
           id="path5346"
           d="m 134.68879,127.3196 5.47902,-7.34991 9.35444,-19.51068 -0.13364,9.48807 c -1.95256,3.25531 -1.38912,2.14072 -9.6217,16.30344 l -5.21176,4.67721 z"
           style="fill:#ffc9a9;fill-opacity:1;fill-rule:evenodd;stroke:#ffc9a9;stroke-width:0.50400746px;stroke-linecap:butt;stroke-linejoin:miter;stroke-opacity:1" />
        <path
           sodipodi:nodetypes="cccccc"
           inkscape:connector-curvature="0"
           id="path5348"
           d="m 160.74756,153.77928 6.94901,0.93545 c -1.18783,-0.18042 -0.55871,4.00345 1.20272,8.28536 -2.33659,14.04711 -1.63561,19.07589 -4.94449,24.58879 h -4.67722 c 0.83123,-7.61411 2.03696,-20.70443 1.46998,-33.8096 z"
           style="fill:#ffc9a9;fill-opacity:1;fill-rule:evenodd;stroke:#ffc9a9;stroke-width:0.50400746px;stroke-linecap:butt;stroke-linejoin:miter;stroke-opacity:1" />
        <path
           sodipodi:nodetypes="cccccccc"
           inkscape:connector-curvature="0"
           id="path5350"
           d="m 171.43835,154.44746 -0.13364,4.14267 c 6.91834,18.90823 8.55263,18.4416 12.82894,27.6624 l 3.60814,-3.47451 c -1.32815,-5.94196 -1.1129,-10.98361 -6.41447,-19.2434 l -2.80633,-4.00904 c 0.54036,-3.56169 0.57001,-5.33592 0.4009,-6.41447 z"
           style="fill:#ffc9a9;fill-opacity:1;fill-rule:evenodd;stroke:#ffc9a9;stroke-width:0.50400746px;stroke-linecap:butt;stroke-linejoin:miter;stroke-opacity:1" />
        <path
           inkscape:connector-curvature="0"
           id="path5352"
           d="m 158.47577,190.52884 -0.93544,5.07812 2.27179,1.73726 2.80633,-3.74178 -0.80181,-2.93996 z"
           style="fill:#ffc9a9;fill-opacity:1;fill-rule:evenodd;stroke:#ffc9a9;stroke-width:0.50400746px;stroke-linecap:butt;stroke-linejoin:miter;stroke-opacity:1" />
        <path
           inkscape:connector-curvature="0"
           id="path5356"
           d="m 184.96376,187.45381 -1.88988,6.23661 4.39397,1.6064 2.92932,-2.55134 -0.61422,-5.6224 -2.64583,-1.32292 z"
           style="fill:#ffc9a9;fill-opacity:1;fill-rule:evenodd;stroke:#ffc9a9;stroke-width:0.50400746px;stroke-linecap:butt;stroke-linejoin:miter;stroke-opacity:1" />
        <path
           sodipodi:nodetypes="cccccccccccccccccc"
           inkscape:connector-curvature="0"
           id="path5360"
           d="m 57.773387,56.146217 c -3.132446,-5.54295 -3.258175,-5.58149 -5.670882,-11.14563 -0.729617,-1.2548 -0.998018,-5.94553 2.672696,-9.22081 2.079737,-2.47611 5.646692,-4.05989 9.488069,-5.47902 5.984538,1.51453 5.905228,3.16269 8.285353,4.67721 3.476516,3.72235 1.368637,4.98849 2.271792,7.08265 0.0078,2.90495 -0.514575,5.14712 -3.331147,4.52157 v 0 0 h 2e-6 c -3.257153,-2.95756 -4.059735,-4.75601 -0.91055,-4.68835 -2.656793,-0.10609 -4.858197,-1.80604 -6.803575,-4.40208 -0.739959,2.51933 -3.512905,5.2917 -5.659075,7.10793 -0.589301,1.13087 1.354551,2.43869 0,3.00677 l -1.737251,-2.87314 -1.403165,0.26727 c -0.590683,2.31277 -0.477286,4.07233 1.415525,4.43378 -0.762276,3.8272 0.432577,5.11013 1.382208,6.71185 z"
           style="fill:#000000;fill-rule:evenodd;stroke:#000000;stroke-width:0.50400746px;stroke-linecap:butt;stroke-linejoin:miter;stroke-opacity:1" />
        <path
           sodipodi:nodetypes="cccccccccccccc"
           inkscape:connector-curvature="0"
           id="path5364"
           d="m 124.93345,99.523547 c -2.17437,-2.98424 3.68695,-7.14047 5.34539,-6.68171 2.59091,-0.65045 5.46451,0.12258 7.08264,1.73724 2.04458,3.0736 2.13481,6.278123 3.54133,8.819903 4.378,5.26092 2.04266,10.66923 2.87314,15.7689 l -1.73725,8.55262 c -1.03165,4.66313 -4.69235,2.86706 -7.48355,3.20723 0.93797,-0.43208 -3.54225,2.47616 -0.80717,-9.38351 -1.73328,-5.38721 -4.18295,-6.65523 -6.60956,-8.05582 l 0.60136,-2.73951 c 1.83674,-1.54868 3.54625,-3.22458 4.67722,-5.47903 l -0.46773,-2.80633 c 0.63232,-1.00769 1.31368,-1.79472 1.60362,-4.343133 -1.94729,2.049393 -6.08319,1.10913 -8.61944,1.40315 z"
           style="fill:#905424;fill-opacity:1;fill-rule:evenodd;stroke:#905424;stroke-width:0.50400746px;stroke-linecap:butt;stroke-linejoin:miter;stroke-opacity:1" />
        <path
           sodipodi:nodetypes="cccccccc"
           inkscape:connector-curvature="0"
           id="path5368"
           d="m 156.27812,73.298287 c -1.06815,0.76476 0.4926,2.21438 -5.56843,2.77946 -2.11471,-2.44116 -4.92496,-4.84369 -4.91369,-7.40296 -0.74869,-2.00824 0.0275,-5.03307 0.0419,-7.55002 l 7.44327,-5.0434 5.36602,6.16783 c -0.0427,4.26422 0.0557,5.28188 0.13363,6.77114 z"
           style="fill:#ffc9a9;fill-opacity:1;fill-rule:evenodd;stroke:none;stroke-width:0.50400746px;stroke-linecap:butt;stroke-linejoin:miter;stroke-opacity:1" />
        <path
           sodipodi:nodetypes="ccccccccccccccccccccccccccc"
           inkscape:connector-curvature="0"
           id="path5366"
           d="m 150.70969,76.077747 0.68344,2.9997 -1.73725,4.27631 c -2.06196,0.33352 -3.60381,2.4874 -5.34539,3.94223 -3.49424,0.37902 -3.95466,-0.55473 -5.67948,-3.00678 -0.58349,-2.85931 1.05165,-3.72183 2.13816,-5.07813 -0.25154,-2.83515 0.46291,-4.70429 1.06908,-6.68173 -1.1989,-2.61837 -1.21302,-4.79245 -1.00226,-6.88219 -0.5216,-2.34516 0.85736,-3.84807 1.9377,-7.61718 l 1.80407,-4.27632 3.47451,-2.33861 4.20948,1.00226 0.86864,-1.20271 c 4.55662,0.63026 3.06363,0.31158 4.47677,1.60363 0.69383,2.097 2.38315,2.78405 2.20497,4.00904 2.99426,6.15695 1.35296,4.13703 1.6036,7.55036 1.79473,4.93134 2.35538,7.13226 3.27406,8.35217 1.09135,0.8909 0.11681,0.93416 2.33861,3.40768 l 4.20949,3.87542 c -6.05587,3.86454 -6.09444,1.92531 -8.0849,0.13363 -2.42538,-1.22499 -2.00247,-2.44997 -7.75082,-3.67496 -0.74925,-2.87586 0.24514,-2.70715 0.87595,-3.17328 l 2.5027,-4.27795 -1.45655,-8.66102 c -3.29738,-0.54724 -2.77814,-1.69829 -4.0431,-4.27795 -1.2048,2.63835 -3.39391,4.53847 -7.44327,5.0434 0.42235,5.63487 -3.5751,6.05404 4.87179,14.95298 z"
           style="fill:#000000;fill-opacity:1;fill-rule:evenodd;stroke:#000000;stroke-width:0.50400746px;stroke-linecap:butt;stroke-linejoin:miter;stroke-opacity:1" />
      </g>
      <g
         style="display:inline;stroke-width:1.90491021"
         inkscape:label="Layer 3"
         id="layer3">
        <g
           transform="translate(-12.184194,69.057414)"
           id="g1019"
           style="stroke-width:1.90491021">
          <path
             style="display:inline;fill:#000000;fill-rule:evenodd;stroke:#000000;stroke-width:0.50400746px;stroke-linecap:butt;stroke-linejoin:miter;stroke-opacity:1"
             d="m 61.692854,83.499716 1.870887,19.109774 -3.741775,32.47324 -1.336346,5.7463 4.944485,0.26727 0.133636,-1.33635 1.737251,0.93544 7.617183,0.26727 2.004521,-2.13815 -6.949008,-1.06908 -4.543583,-1.87089 7.082643,-31.93871 2.004523,-19.510674 4.543581,20.713394 -0.133636,26.05878 -0.668173,9.48806 4.409948,0.13364 0.400904,-1.46998 1.737252,1.20271 9.220797,0.26727 2.138157,-1.87089 L 81.604433,135.35 84.143494,105.54945 83.608956,80.292476 Z"
             id="path929"
             inkscape:connector-curvature="0"
             sodipodi:nodetypes="ccccccccccccccccccccccccc" />
          <path
             style="display:inline;fill:#333333;fill-rule:evenodd;stroke:#333333;stroke-width:0.50400746px;stroke-linecap:butt;stroke-linejoin:miter;stroke-opacity:1"
             d="m 59.821966,135.08273 3.608139,0.80181 11.492591,2.93997 -2.004521,2.13815 -7.617183,-0.26727 -1.737251,-0.93544 -0.133636,1.33635 -4.944485,-0.26727 z"
             id="path931"
             inkscape:connector-curvature="0" />
          <path
             style="display:inline;fill:#333333;fill-rule:evenodd;stroke:#333333;stroke-width:0.50400746px;stroke-linecap:butt;stroke-linejoin:miter;stroke-opacity:1"
             d="m 76.793583,135.35 h 4.81085 l 12.561668,3.60814 -2.138157,1.87089 -9.220797,-0.26727 -1.737252,-1.20271 -0.400904,1.46998 -4.409948,-0.13364 z"
             id="path933"
             inkscape:connector-curvature="0" />
        </g>
        <path
           inkscape:connector-curvature="0"
           id="path5485"
           d="m 62.793287,61.170386 -0.99418,4.81481 0.661458,0.61421 0.850445,-0.0945 0.566965,-0.99218 z"
           style="display:inline;fill:#ffff00;fill-rule:evenodd;stroke:#ffff00;stroke-width:0.50400746px;stroke-linecap:butt;stroke-linejoin:miter;stroke-opacity:1" />
        <path
           inkscape:connector-curvature="0"
           id="path5487"
           d="m 62.460565,66.599406 c 0,0 -0.188989,3.49628 -0.425222,5.14992 -0.236236,1.65365 0.519715,3.35454 0.519715,3.35454 l 1.039434,4.016 0.425226,-4.86644 1.039434,-4.8192 -1.748142,-2.92932 -0.850445,0.0945 v 0"
           style="display:inline;fill:#ffff00;fill-rule:evenodd;stroke:#ffff00;stroke-width:0.50400746px;stroke-linecap:butt;stroke-linejoin:miter;stroke-opacity:1" />
        <path
           sodipodi:nodetypes="cccccccccccccccccc"
           inkscape:connector-curvature="0"
           id="path5491"
           d="m 57.773387,56.146216 c -4.631891,9.89455 -4.434896,4.53044 -11.268489,11.95374 -1.996632,4.05753 -4.535311,7.84404 -5.211756,12.56167 -0.78942,4.99546 -2.255055,14.45593 -1.336347,19.10976 l 0.267269,17.506164 v 21.38156 c -0.155676,11.8138 1.181806,12.42893 2.405425,13.89802 0.257037,0.17993 24.020699,1.3663 21.381561,-0.13364 2.540609,1.01964 12.995487,-8.08935 15.501633,-11.35895 3.346412,-10.241 -0.44545,-18.21887 -0.668174,-28.0633 -0.133635,-5.2563 -0.441274,1.1484 -1.202713,-16.036184 0.45535,-3.62595 -3.209484,-10.96007 -6.147197,-17.63978 l -5.207027,-15.41895 -1.22842,5.5279 -1.46466,9.68564 -2.790676,-9.4163 -6.178235,-8.05862 z"
           style="display:inline;fill:#f9f9f9;fill-rule:evenodd;stroke:#f9f9f9;stroke-width:0.50400746px;stroke-linecap:butt;stroke-linejoin:miter;stroke-opacity:1" />
        <path
           inkscape:connector-curvature="0"
           id="path5499"
           d="m 54.625581,61.644946 -0.369867,6.18774 3.608139,2.67269 -0.133636,2.93996 5.864275,5.67453 -2.790676,-9.4163 z"
           style="display:inline;fill:#e6e6e6;fill-rule:evenodd;stroke:#e6e6e6;stroke-width:0.50400746px;stroke-linecap:butt;stroke-linejoin:miter;stroke-opacity:1" />
        <path
           sodipodi:nodetypes="ccccc"
           inkscape:connector-curvature="0"
           id="path5501"
           d="m 63.594492,79.119866 4.425601,-7.54541 -0.267269,-3.47451 -1.465252,-4.19362 c -1.068855,5.52821 -3.045161,11.89465 -2.69308,15.21354 z"
           style="display:inline;fill:#e6e6e6;fill-rule:evenodd;stroke:#e6e6e6;stroke-width:0.50400746px;stroke-linecap:butt;stroke-linejoin:miter;stroke-opacity:1" />
        <path
           sodipodi:nodetypes="ccccccccccccccc"
           inkscape:connector-curvature="0"
           id="path5507"
           d="m 48.977139,70.037656 c 1.83399,-0.57211 3.348559,-0.50538 3.942226,1.40316 1.187345,2.57439 2.595463,5.28124 2.939965,7.34992 2.092947,4.8542 2.956714,7.49588 3.274052,9.15398 0.8264,2.05371 1.98087,4.76355 2.472243,6.1472 2.042032,1.75343 3.573031,3.71127 6.414468,5.14493 l 6.214018,4.810864 7.750815,5.34539 -2.739512,3.27405 c -5.144938,-3.16269 -3.905217,-2.86702 -15.434815,-9.48807 l -6.414468,-3.14042 c -2.380057,-1.449954 -4.349072,-3.156304 -6.214018,-6.080384 -2.749369,-3.82068 -3.450531,-5.90197 -4.744034,-10.02261 -1.384989,-3.66399 -1.258878,-8.29841 -0.400902,-10.35669 0.363886,-1.5655 1.155921,-2.86341 2.939962,-3.54132 z"
           style="display:inline;fill:#ececec;fill-rule:evenodd;stroke:#ececec;stroke-width:0.50400746px;stroke-linecap:butt;stroke-linejoin:miter;stroke-opacity:1" />
        <path
           sodipodi:nodetypes="cccc"
           inkscape:connector-curvature="0"
           id="path5322"
           d="m 57.773387,56.146217 5.0199,5.02417 0.603888,-4.77982 c -1.672438,0.087 -2.958135,0.49631 -5.623788,-0.24435 z"
           style="display:inline;fill:#ffc9a9;fill-opacity:1;fill-rule:evenodd;stroke:#ffc9a9;stroke-width:0.50400746px;stroke-linecap:butt;stroke-linejoin:miter;stroke-opacity:1" />
        <path
           sodipodi:nodetypes="ccscc"
           inkscape:connector-curvature="0"
           id="path5481"
           d="m 57.773387,56.146215 -3.147805,5.498735 c 4.486819,5.547069 2.34439,2.057422 5.863996,8.048591 0.761781,1.296726 0.84585,-3.975168 2.303709,-8.523154 l -5.0199,-5.024172"
           style="fill:#0000ff;fill-opacity:1;fill-rule:evenodd;stroke:#0000ff;stroke-width:0.50400746px;stroke-linecap:butt;stroke-linejoin:miter;stroke-opacity:1" />
        <path
           sodipodi:nodetypes="ccccc"
           inkscape:connector-curvature="0"
           id="path5483"
           d="m 62.793287,61.170385 c 0.442016,2.343431 0.793812,4.777082 1.84064,6.515701 1.10291,-0.928904 1.117318,-2.510909 1.653645,-3.779763 0.506603,-1.858383 -1.842133,-3.764013 -2.929313,-5.622396 z"
           style="fill:#0000ff;fill-opacity:1;fill-rule:evenodd;stroke:#0000ff;stroke-width:0.50400746px;stroke-linecap:butt;stroke-linejoin:miter;stroke-opacity:1" />
        <path
           sodipodi:nodetypes="ccccccccccccssssssccccccsccccccccc"
           inkscape:connector-curvature="0"
           id="path946"
           d="m 119.25397,115.62656 c 2.85539,2.76204 1.30198,5.62065 1.20271,8.21854 l -3.6599,5.32594 c -1.61784,2.23098 -3.48106,2.98974 -4.6104,8.15172 l -0.46772,5.81311 v 6.81538 c 0.22102,2.80174 -0.96266,18.23455 -0.26727,20.24566 0.70836,5.25025 2.67599,5.44835 4.54358,5.81311 3.67513,1.20295 12.11798,-0.90339 14.76664,-1.06907 5.59846,-0.6613 6.54373,-3.18242 7.41673,-3.67496 4.1183,-2.85634 0.0794,-22.56739 0.53455,-23.85381 l -0.67038,-8.35646 c -0.34284,0.3635 -3.40969,1.91278 -3.54066,-0.2242 -0.0177,-0.28898 -0.007,-0.7603 0.0213,-1.33347 0.0278,-0.57317 3.11748,-3.31299 2.45204,-3.42871 -1.29031,-0.22439 -2.89395,-0.42718 -1.94728,-1.31973 0.42572,-0.40138 1.81499,-1.12492 1.75339,-1.43211 -0.24663,-1.22878 -2.61192,0.31354 -3.42798,-1.05588 -1.36166,-2.28497 -0.26069,-3.82589 -0.39357,-5.22924 -4.64577,7.44419 -7.5261,9.78817 -11.16512,14.32396 0.52207,0.43451 0.35928,1.17433 -1.02658,2.45939 l -3.09792,0.85576 c -2.17187,0.14648 -1.64,-1.50952 1.10068,-4.63807 -1.01404,0.20732 -2.38642,1.48964 -2.83481,0 0,0 1.47896,-2.14948 4.01465,-1.62937 1.57613,0.32329 9.2185,-10.60777 11.2151,-13.57745 l -0.70158,-2.40543 -0.63755,-1.61729 0.33073,-3.49628 -1.68244,-0.81694 -0.92039,3.85596 -5.27857,0.13364 -1.00226,-4.34313 z"
           style="fill:#ff5599;fill-rule:evenodd;stroke:#ff5599;stroke-width:0.50400746px;stroke-linecap:butt;stroke-linejoin:miter;stroke-opacity:1" />
        <path
           sodipodi:nodetypes="cccccc"
           inkscape:connector-curvature="0"
           id="path948"
           d="m 121.8749,176.07684 1.1359,16.16981 2.27179,-10e-6 v 0 l -1.20271,-16.23662 z"
           style="fill:#f9f9f9;fill-rule:evenodd;stroke:#f9f9f9;stroke-width:0.50400746px;stroke-linecap:butt;stroke-linejoin:miter;stroke-opacity:1" />
        <path
           sodipodi:nodetypes="ccccc"
           inkscape:connector-curvature="0"
           id="path950"
           d="m 132.29841,174.60686 3.00679,16.70434 2.00452,10e-6 -2.27179,-17.50616 z"
           style="fill:#f9f9f9;fill-rule:evenodd;stroke:#f9f9f9;stroke-width:0.50400746px;stroke-linecap:butt;stroke-linejoin:miter;stroke-opacity:1" />
        <path
           sodipodi:nodetypes="ccccccc"
           inkscape:connector-curvature="0"
           id="path952"
           d="m 120.40492,191.64529 c 2.56554,0.27683 5.96335,1.34917 6.5481,-0.26727 l 1.06908,5.54584 c 1.55721,2.30545 1.37991,4.67347 2.27179,6.81537 l -15.368,0.40091 c 0.73817,-3.15421 1.78386,-5.96673 5.67948,-5.61266 z"
           style="fill:#ff0000;fill-rule:evenodd;stroke:#ff0000;stroke-width:0.50400746px;stroke-linecap:butt;stroke-linejoin:miter;stroke-opacity:1" />
        <path
           sodipodi:nodetypes="cccccc"
           inkscape:connector-curvature="0"
           id="path954"
           d="m 132.03114,191.04393 c 3.42175,0.52023 6.14848,0.20644 8.68626,-0.33409 1.33622,8.78183 2.03571,9.72462 1.26953,13.69757 l -11.69304,-0.66818 c -2.50948,-3.36922 1.99132,-4.66133 3.8086,-6.74855 z"
           style="fill:#ff0000;fill-rule:evenodd;stroke:#ff0000;stroke-width:0.50400746px;stroke-linecap:butt;stroke-linejoin:miter;stroke-opacity:1" />
        <path
           inkscape:connector-curvature="0"
           id="path958"
           d="m 159.27758,187.58888 h 4.67722 l 0.93731,4.59311 1.03943,7.9375 -1.22842,0.0945 -2.08467,-6.61155 -0.80181,-2.93996 -3.34087,-0.13364 z"
           style="fill:#000000;fill-rule:evenodd;stroke:#000000;stroke-width:0.50400746px;stroke-linecap:butt;stroke-linejoin:miter;stroke-opacity:1" />
        <path
           inkscape:connector-curvature="0"
           id="path960"
           d="m 157.54033,195.60696 2.27179,1.73726 -2.19605,3.34224 -1.41741,1.70089 -7.18155,0.47247 0.75595,-1.7009 2.45685,-0.47246 z"
           style="fill:#000000;fill-rule:evenodd;stroke:#000000;stroke-width:0.50400746px;stroke-linecap:butt;stroke-linejoin:miter;stroke-opacity:1" />
        <path
           inkscape:connector-curvature="0"
           id="path962"
           d="m 177.45982,198.51309 -0.18899,2.26786 6.80357,-0.47247 3.39345,-5.01166 -4.39397,-1.6064 -2.77924,4.3502 z"
           style="fill:#000000;fill-rule:evenodd;stroke:#000000;stroke-width:0.50400746px;stroke-linecap:butt;stroke-linejoin:miter;stroke-opacity:1" />
        <path
           sodipodi:nodetypes="cccccccccccccc"
           inkscape:connector-curvature="0"
           id="path964"
           d="m 184.96376,187.45381 2.17336,-1.65365 2.64583,1.32292 0.61422,5.6224 c 0.61829,1.78994 0.4775,-1.7337 1.89821,5.67312 l 2.64584,-0.56697 -2.12612,-8.40997 c -0.55951,-2.47979 -2.47247,-3.29012 -3.26004,-3.96875 -1.67887,-1.61632 -1.13061,-0.63875 -1.81327,-2.69489 l -3.60814,3.47451 0.83011,1.20128 2.17336,-1.65365 2.64583,1.32292 0.61422,5.6224"
           style="fill:#000000;fill-rule:evenodd;stroke:#000000;stroke-width:0.50400746px;stroke-linecap:butt;stroke-linejoin:miter;stroke-opacity:1" />
        <path
           inkscape:connector-curvature="0"
           id="path968"
           d="m 190.39717,192.74548 -2.92932,2.55134"
           style="fill:none;fill-rule:evenodd;stroke:#000000;stroke-width:0.50400746px;stroke-linecap:butt;stroke-linejoin:miter;stroke-opacity:1" />
        <path
           inkscape:connector-curvature="0"
           id="path970"
           d="m 162.61845,193.60244 -2.80633,3.74178"
           style="fill:none;fill-rule:evenodd;stroke:#000000;stroke-width:0.50400746px;stroke-linecap:butt;stroke-linejoin:miter;stroke-opacity:1" />
        <path
           sodipodi:nodetypes="cccccccccccccc"
           inkscape:connector-curvature="0"
           id="path974"
           d="m 149.65588,83.353755 c -2.04056,2.692168 -3.36821,5.486179 -2.92491,8.533183 l 2.53906,3.207234 0.25222,5.364838 -0.13364,9.48807 -2.52401,12.54222 4.67722,-6.41447 6.28083,-11.09168 c 3.89384,-7.31171 4.11392,-13.797146 3.19219,-20.025773 -0.75092,0.465081 2.89966,-1.981766 4.54358,-0.40091 0.17833,-4.295333 -5.15278,-6.116553 -10.15625,-8.084902 l 2.00452,6.614932 -4.26125,2.519609 z"
           style="fill:#71c637;fill-opacity:1;fill-rule:evenodd;stroke:#71c637;stroke-width:0.50400746px;stroke-linecap:butt;stroke-linejoin:miter;stroke-opacity:1" />
        <path
           sodipodi:nodetypes="cccccccccccccc"
           inkscape:connector-curvature="0"
           id="path976"
           d="m 147.26551,128.36923 0.13363,19.37704 c -0.6281,3.393 2.37959,4.24095 5.21176,5.21176 l 15.08567,1.7567 3.74178,-0.26727 7.48354,-1.33635 3.08866,-1.08853 c -1.84145,-10.49826 -2.8137,-19.25814 -5.61267,-31.67144 l -4.14267,-21.515193 -6.69679,-14.27948 c 0.83957,2.688045 3.08034,6.310221 2.01957,7.731376 -0.85808,7.110678 -2.30019,8.965167 -3.4745,13.229837 l -10.82442,16.43708 z"
           style="fill:#71c837;fill-rule:evenodd;stroke:#71c637;stroke-width:0.50400746px;stroke-linecap:butt;stroke-linejoin:miter;stroke-opacity:1" />
        <path
           inkscape:connector-curvature="0"
           id="path935"
           d="m 81.984927,109.3931 4.194442,0.88807 -4.142677,4.20949 -2.791277,-1.82351 z"
           style="display:inline;fill:#0000ff;fill-rule:evenodd;stroke:#0000ff;stroke-width:0.50400746px;stroke-linecap:butt;stroke-linejoin:miter;stroke-opacity:1" />
      </g>
      <g
         style="display:inline;stroke-width:1.90491021"
         inkscape:label="Layer 4"
         id="layer4">
        <path
           sodipodi:nodetypes="cccccccccc"
           inkscape:connector-curvature="0"
           id="path1028"
           d="m 91.057038,112.95386 c 1.521912,0.30652 3.045622,-0.93131 4.570937,-3.54865 -0.457283,-2.58871 -1.804013,-3.77971 -0.66146,-8.88244 0.821764,-1.908696 1.899389,-4.305511 5.197175,-6.898067 2.2559,-1.048703 3.4083,-3.258988 10.20535,0.472469 1.51972,2.433223 5.4609,5.295723 1.79539,11.150298 -2.59274,2.31015 -3.64408,5.391 -8.97693,6.3311 l -4.724706,-0.94494 c -1.718575,1.18752 -3.815182,1.9025 -4.599426,4.25794 -1.543772,-1.06594 -4.011058,-2.76955 -2.80633,-1.93771 z"
           style="fill:#ffff00;fill-rule:evenodd;stroke:#ffff00;stroke-width:0.50400746px;stroke-linecap:butt;stroke-linejoin:miter;stroke-opacity:1" />
        <path
           sodipodi:nodetypes="ccccc"
           inkscape:connector-curvature="0"
           id="path1030"
           d="m 95.627975,109.40521 2.834817,1.22842 c -1.515104,1.39045 -0.723362,-0.91005 -4.599424,4.25794 -2.598085,1.48186 -1.968562,-0.8962 -2.80633,-1.93771 3.558902,-0.34437 3.191034,-2.30655 4.570937,-3.54865 z"
           style="fill:#008000;fill-rule:evenodd;stroke:#808000;stroke-width:0.50400746px;stroke-linecap:butt;stroke-linejoin:miter;stroke-opacity:1" />
        <path
           sodipodi:nodetypes="ccccc"
           inkscape:connector-curvature="0"
           id="path1034"
           d="m 86.91436,119.10107 3.327455,1.45444 c -2.995352,1.14409 -3.312786,2.58573 -4.157739,3.96875 l -1.41741,-1.13393 c 0.780405,-1.18036 1.694824,-1.28862 2.247694,-4.28926 z"
           style="fill:#808000;fill-rule:evenodd;stroke:#808000;stroke-width:0.50400746px;stroke-linecap:butt;stroke-linejoin:miter;stroke-opacity:1" />
        <path
           inkscape:original-d="m 104.41592,102.69613 c 1.0082,-1.0082 2.01614,-2.07913 3.02381,-3.118302 1.00767,-1.039172 -2.39358,-0.882211 -3.59077,-1.322917 -1.19719,-0.440708 -2.58258,3.464519 -3.87426,5.197169 -1.291682,1.73266 3.02407,2.07861 4.53572,3.11831 1.51163,1.0397 4.158,-4.66197 6.2366,-6.992562 2.07861,-2.33059 -6.23634,-2.205127 -9.35491,-3.307292 -3.118567,-1.102166 -2.960547,7.118284 -4.441219,10.677824 -1.480672,3.55954 6.677839,1.51164 10.016369,2.26786 3.33853,0.75622 3.46505,-7.24481 5.19717,-10.866815 1.73213,-3.622009 -6.61432,-3.213063 -9.92187,-4.819198 -3.307558,-1.606134 -4.850434,4.661442 -7.276046,6.992563 -2.425613,2.33112 0.441237,5.92136 0.661461,8.88244"
           inkscape:path-effect="#path-effect1064;#path-effect1066"
           inkscape:connector-curvature="0"
           id="path1062"
           d="m 104.41592,102.69613 c 0.0461,-0.0908 0.56434,0.15254 1.35503,-0.0769 0.33122,-0.0954 0.71913,-0.30157 1.00808,-0.65688 0.22277,-0.27231 0.39367,-0.64788 0.4184,-1.05587 0.0221,-0.3445 -0.0617,-0.72981 -0.26596,-1.050571 -0.24197,-0.402412 -0.70857,-0.718789 -1.2633,-0.875806 0,0 0,-10e-7 0,-10e-7 -0.49895,-0.140573 -1.07394,-0.12006 -1.69033,0.0057 -0.94655,0.212339 -1.9538,0.726741 -2.56174,1.568635 -0.28148,0.38131 -0.49542,0.82952 -0.58745,1.29838 -0.0876,0.44391 -0.0772,0.92124 0.0571,1.35205 0.18674,0.65972 0.70975,1.27415 1.37619,1.68846 0.63556,0.39564 1.44239,0.58802 2.29581,0.61754 1.45342,0.0279 3.06145,-0.52118 4.05768,-1.64986 0.47845,-0.52985 0.8448,-1.18526 1.01408,-1.8815 0.16466,-0.67204 0.16023,-1.40585 -0.0438,-2.066221 -0.19565,-0.660668 -0.6064,-1.288961 -1.14503,-1.787335 -0.52639,-0.488213 -1.20228,-0.853379 -1.93402,-1.070823 -1.41272,-0.438735 -3.08072,-0.221899 -4.61608,0.408898 -1.70474,0.738587 -3.265651,2.047485 -4.002851,3.725871 -0.367679,0.81528 -0.566942,1.71773 -0.53434,2.59983 0.02107,0.58845 0.139569,1.17948 0.354458,1.72565 0.10215,0.25963 0.225627,0.50795 0.369799,0.74015 0.743107,1.25732 2.189094,2.1193 3.663214,2.42008 1.54013,0.31729 3.21787,0.01 4.69263,-0.63638 1.81492,-0.81979 3.33835,-2.18662 4.1756,-3.82654 0.8885,-1.72799 1.0594,-3.78338 0.44605,-5.448619 -0.57657,-1.642508 -1.90211,-2.979459 -3.38433,-3.708923 -1.63688,-0.810999 -3.54098,-0.925183 -5.18676,-0.557056 -1.6269,0.363984 -3.063667,1.203383 -4.162314,2.215403 -1.295007,1.191751 -2.159555,2.655511 -2.674505,4.033895 -1.894263,5.06729 0.216549,8.53882 -0.01923,8.65782 0.505531,-0.25514 -3.295569,-2.4266 -1.342148,-9.10706 0.468753,-1.602731 1.354132,-3.343328 2.810273,-4.839218 1.239553,-1.272254 2.90954,-2.356915 4.905,-2.89661 2.03258,-0.549583 4.40733,-0.490713 6.60557,0.493575 2.00369,0.902292 3.77916,2.603504 4.66708,4.878842 0.88125,2.333121 0.74514,5.053031 -0.43678,7.407761 -1.11194,2.20379 -3.01641,3.99541 -5.33591,5.05071 -1.86902,0.87064 -4.06329,1.26195 -6.25528,0.86341 -2.142858,-0.39295 -4.179492,-1.64426 -5.421614,-3.61543 -0.22531,-0.36867 -0.417445,-0.75485 -0.575585,-1.1537 -0.332703,-0.83912 -0.511756,-1.72624 -0.537748,-2.61348 -0.03776,-1.32394 0.245737,-2.61915 0.781811,-3.77965 1.118157,-2.377716 3.152007,-4.104723 5.401026,-5.017317 1.99361,-0.843003 4.24817,-1.054184 6.34243,-0.431021 1.07932,0.33094 2.07524,0.902392 2.89552,1.677718 0.84339,0.798343 1.46081,1.808226 1.77674,2.918627 0.30941,1.117043 0.29311,2.274033 5.5e-4,3.337623 -0.30284,1.09596 -0.87746,2.06931 -1.6244,2.84621 -1.59999,1.63998 -3.80382,2.33083 -5.82137,2.20371 -1.1671,-0.0606 -2.30849,-0.40602 -3.28515,-1.04096 -1.04714,-0.68103 -1.803669,-1.71654 -2.11429,-2.88966 -0.191576,-0.76982 -0.17215,-1.54787 0.01133,-2.25833 0.193287,-0.74595 0.551779,-1.40711 1.006569,-1.949836 1.00726,-1.185224 2.3794,-1.790638 3.63848,-1.967107 0.8058,-0.125105 1.6152,-0.07041 2.35442,0.184647 0,0 1e-5,10e-7 1e-5,10e-7 0.84501,0.290195 1.50632,0.880376 1.87348,1.591042 0.28953,0.581494 0.34898,1.200533 0.25101,1.742503 -0.11697,0.63864 -0.44393,1.15054 -0.82311,1.49896 -0.49181,0.45013 -1.05885,0.62778 -1.50735,0.66263 -1.15729,0.0882 -1.44651,-0.51969 -1.45262,-0.50767 z"
           style="fill:#00ff00;fill-rule:evenodd;stroke:none;stroke-width:0.50400746px;stroke-linecap:butt;stroke-linejoin:miter;stroke-opacity:1" />
      </g>
      <path
         sodipodi:nodetypes="cc"
         inkscape:connector-curvature="0"
         id="path1544"
         d="m 63.594492,79.119864 c 1.980505,6.453008 4.470768,12.651137 4.425601,20.11698"
         style="fill:#999999;fill-rule:evenodd;stroke:#999999;stroke-width:0.50400746px;stroke-linecap:butt;stroke-linejoin:miter;stroke-opacity:1" />
      <path
         sodipodi:nodetypes="cc"
         inkscape:connector-curvature="0"
         id="path1546"
         d="m 68.420998,105.91859 c 3.822485,15.04135 2.374806,29.02866 3.003764,43.4313"
         style="fill:#999999;fill-rule:evenodd;stroke:#999999;stroke-width:0.50400746px;stroke-linecap:butt;stroke-linejoin:miter;stroke-opacity:1" />
      <ellipse
         ry="0.80180848"
         rx="0.8018086"
         cy="80.587074"
         cx="63.88279"
         id="path1548"
         style="opacity:1;fill:#999999;fill-opacity:1;fill-rule:evenodd;stroke:#000000;stroke-width:1.51202238;stroke-linecap:round;stroke-miterlimit:4;stroke-dasharray:none;stroke-opacity:1" />
      <ellipse
         ry="0.80180848"
         rx="0.8018086"
         cy="93.624191"
         cx="67.752823"
         id="path1548-7"
         style="opacity:1;fill:#b3b3b3;fill-opacity:1;fill-rule:evenodd;stroke:#000000;stroke-width:1.51202238;stroke-linecap:round;stroke-miterlimit:4;stroke-dasharray:none;stroke-opacity:1" />
      <ellipse
         ry="0.80180848"
         rx="0.8018086"
         cy="111.79852"
         cx="69.623711"
         id="path1548-73"
         style="opacity:1;fill:#b3b3b3;fill-opacity:1;fill-rule:evenodd;stroke:#000000;stroke-width:1.51202238;stroke-linecap:round;stroke-miterlimit:4;stroke-dasharray:none;stroke-opacity:1" />
      <ellipse
         inkscape:transform-center-y="-11.358955"
         inkscape:transform-center-x="-17.907059"
         ry="0.80180848"
         rx="0.8018086"
         cy="125.02837"
         cx="70.96006"
         id="path1548-5"
         style="opacity:1;fill:#b3b3b3;fill-opacity:1;fill-rule:evenodd;stroke:#000000;stroke-width:1.51202238;stroke-linecap:round;stroke-miterlimit:4;stroke-dasharray:none;stroke-opacity:1" />
    </g>
  </g>
</svg>
